<svg version="1.2" baseProfile="tiny" id="EdgeSVG_nO5xG" x="0px" y="0px" width="101.44px" height="58.583px" viewBox="0 0 101.44 58.583" xmlns:xlink="http://www.w3.org/1999/xlink" xmlns="http://www.w3.org/2000/svg">
  <linearGradient id="SVGID_1_" gradientUnits="userSpaceOnUse" x1="0" y1="29.2915" x2="101.4399" y2="29.2915">
    <stop offset="0" style="stop-color:#000000;stop-opacity:0.5"/>
    <stop offset="1" style="stop-color:#000000;stop-opacity:0.5"/>
  </linearGradient>
  <path fill="url(#SVGID_1_)" d="M2.72,58.583c-1.5,0-2.72-1.22-2.72-2.72V2.72C0,1.22,1.22,0,2.72,0h96c1.5,0,2.72,1.22,2.72,2.72&#xD;&#xA;&#x9;v53.143c0,1.5-1.22,2.72-2.72,2.72H2.72z"/>
  <path fill="#EC1C24" d="M100.72,55.863c0,1.1-0.9,2-2,2h-96c-1.1,0-2-0.9-2-2V2.72c0-1.1,0.9-2,2-2h96c1.1,0,2,0.9,2,2V55.863z"/>
  <path fill="#FFFFFF" d="M40.404,37.88c-2.013,1.805-4.665,2.716-7.581,2.716c-6.282,0-11.374-5.093-11.374-11.374&#xD;&#xA;&#x9;s5.092-11.374,11.374-11.374c2.917,0,5.568,0.921,7.581,2.726c-2.604-3.285-6.63-5.569-11.148-5.569&#xD;&#xA;&#x9;c-7.852,0-14.217,6.365-14.217,14.217s6.365,14.217,14.217,14.217C33.764,43.439,37.8,41.154,40.404,37.88z"/>
  <path fill="#FFFFFF" d="M48.388,26.716l4.923-1.423l-3.17,4.001l2.881,4.266l-4.811-1.75l-3.136,4.048l0.193-5.112L40.415,29&#xD;&#xA;&#x9;l4.942-1.429l0.153-5.104L48.388,26.716z"/>
</svg>