<svg version="1.2" baseProfile="tiny" viewBox="0 0 16 16" xmlns:xlink="http://www.w3.org/1999/xlink" xmlns="http://www.w3.org/2000/svg">
<path style="fill:#ffffff;" d="M12.638,4.94301L15.848,1.47301C15.988,1.33301,16.028,1.12301,15.948,0.93301C15.868,0.75301,15.688,0.63301,15.488,0.63301H8.98801V0.52301C8.98801,0.24301,8.76801,0.0230103,8.48801,0.0230103H2.74801C2.46801,0.0230103,2.24801,0.24301,2.24801,0.52301V5.47301C2.24801,5.48301,2.23801,5.49301,2.23801,5.50301V15.513C2.23801,15.793,2.46801,16.013,2.73801,16.013C3.01801,16.013,3.23801,15.793,3.23801,15.513V6.99301H6.93801V8.52301C6.93801,8.79301,7.16801,9.02301,7.43801,9.02301H15.398C15.598,9.02301,15.778,8.90301,15.858,8.71301C15.938,8.53301,15.898,8.32301,15.758,8.17301L12.638,4.94301ZM3.24801,5.99301V1.02301H7.98801V5.99301H3.24801ZM7.93801,8.02301V6.99301H8.48801C8.76801,6.99301,8.98801,6.77301,8.98801,6.49301V1.63301H14.338L11.578,4.61301C11.398,4.80301,11.398,5.10301,11.588,5.29301L14.218,8.02301H7.93801Z"/>
</svg>