<svg version="1.2" baseProfile="tiny" viewBox="0 0 45.500 40.000" xmlns:xlink="http://www.w3.org/1999/xlink" xmlns="http://www.w3.org/2000/svg">
<path style="fill:#ffffff;" d="M44.089,37.135L23.729,1.688c-0.185-0.32-0.524-0.518-0.894-0.519c-0.001,0-0.002,0-0.003,0    c-0.368,0-0.709,0.196-0.893,0.515L1.309,37.279c-0.186,0.32-0.186,0.714-0.001,1.034c0.185,0.319,0.525,0.517,0.895,0.517h41.076    c0.007,0,0.014,0,0.018,0c0.57,0,1.034-0.462,1.034-1.032C44.33,37.545,44.239,37.315,44.089,37.135z M3.995,36.766L22.829,4.27    l18.665,32.497H3.995z M23.025,25.983l0.633,1.107l-1.293-0.102l0.262-0.398c-0.671-0.426-1.439-0.648-2.246-0.648    c-1.193,0-2.334,0.508-3.131,1.396l-0.15-0.134c0.835-0.931,2.031-1.464,3.281-1.464c0.845,0,1.652,0.233,2.355,0.681    L23.025,25.983z M20.381,26.976c-1.749,0-3.17,1.422-3.17,3.172c0,1.747,1.422,3.169,3.17,3.169s3.172-1.422,3.172-3.169    C23.554,28.398,22.13,26.976,20.381,26.976z M20.381,32.916c-1.527,0-2.77-1.241-2.77-2.768c0-1.527,1.243-2.771,2.77-2.771    s2.77,1.243,2.77,2.771C23.151,31.674,21.908,32.916,20.381,32.916z M24.896,26.257c0,0-1.849-2.039-4.345-2.002    c-2.814-0.034-4.388,1.728-4.388,1.728s-0.036,0.039-0.119,0s-2.02-0.765-0.267-3.795c0,0-0.598,1.662,0.36,2.2    c0.546,0.153-1.192-1.246,0.739-2.913l-0.048,0.375l-0.635,0.791c0,0-0.388,0.499,0.434,0.501c0.446,0.557,0.746,0.668,0.824,0.635    c0.079-0.034-0.034-0.913-0.034-0.913l0.914-1.151c0,0-0.059,1.099,0.208,1.099c0.267,0,0.713-1.454,0.713-1.454    s0.089,0.684,0.445,0.652c0.356-0.029,0.69-0.808,0.75-1.34c0.021-0.199,1.076,0.465,1.076,0.939c0,0.476,0.102,0.794,0.343,0.847    c0.174,0.051,1.11-0.315,0.891-1.485l0.288,0.625c0,0-0.717,1.283-0.681,1.596c0.036,0.312,0.417,0.776,0.482,0.837    c0.085,0.082,0.315,0.168,0.464-0.04c0.148-0.207,0.479-0.821,0.479-0.821s-0.029,0.181,0.268,0.164    c0.297-0.015,0.215-0.4,0.363-0.431c0.148-0.029,0.715-0.503,0.715-0.949s0.302,0.918,0,1.781    c-0.153,0.435,0.064,0.296,0.091,0.296s0.744-0.964,0.762-1.454C26.008,22.084,26.828,24.069,24.896,26.257z M20.381,24.542    c-3.092,0-5.607,2.514-5.607,5.606c0,3.09,2.516,5.605,5.607,5.605c3.092,0,5.607-2.516,5.607-5.605    C25.988,27.055,23.474,24.542,20.381,24.542z M20.381,35.351c-2.871,0-5.206-2.334-5.206-5.203c0-2.871,2.335-5.205,5.206-5.205    s5.207,2.334,5.207,5.205C25.588,33.017,23.252,35.351,20.381,35.351z M15.792,18.899c0,0,6.751-1.07,7.419-1.182    c0.668-0.111,0.69-0.467,0.69-0.467l2.087-4.432l1.99,3.674c0,0-4.344,6.574-4.522,6.821c-0.178,0.247-0.251,0.524-0.479,0.397    c-0.356-0.201-0.412-0.746-0.412-0.746s0.823-1.66,0.988-1.994c0.162-0.334-0.143-0.337-0.143-0.337s-2.205-0.465-2.45-0.487    c-0.245-0.021-0.349,0.044-0.349,0.044l-2.413,1.321l-1.098,1.43c0,0-0.456,0.069-0.696-0.032    c-0.157-0.068,0.123-0.356,0.123-0.356l1.18-1.716c0,0,1.493-0.823,1.626-1.024c0.134-0.201-0.178-0.201-0.178-0.201    s-1.604,0.958-2.473,1.537c-0.869,0.579-1.36-0.222-1.36-0.222s1.872-1.159,2.006-1.269c0.133-0.109-0.134-0.047-0.78-0.001    C15.903,19.701,15.792,18.899,15.792,18.899z"/>
</svg>