<svg version="1.2" baseProfile="tiny" viewBox="0 0 220.412 63.798" xmlns:xlink="http://www.w3.org/1999/xlink" xmlns="http://www.w3.org/2000/svg">
<path style="fill:#ffffff;" d="M80.251,9.435c0,0.025-0.004,0.05-0.008,0.074c0.002,0.024,0.005,0.049,0.005,0.073l-0.22,2.704    c-0.034,0.322-0.167,0.573-0.373,0.587c-0.207-0.014-0.353-0.254-0.373-0.587l-0.24-2.704c0-0.03,0.003-0.06,0.006-0.089    c-0.002-0.02-0.006-0.038-0.006-0.059c0-0.333,0.271-0.604,0.604-0.604C79.981,8.831,80.251,9.102,80.251,9.435z M79.656,13.467    c-0.298,0-0.54,0.241-0.54,0.539s0.242,0.54,0.54,0.54s0.539-0.242,0.539-0.54S79.954,13.467,79.656,13.467z M148.165,5.486V20.68    H72.266V1.54h71.953c0.435,0,0.847,0.088,1.239,0.22h0.588h1.876v1.856v0.555C148.069,4.584,148.165,5.023,148.165,5.486z     M84.859,15.295c0-0.062-0.022-0.117-0.058-0.16l-4.943-8.608C79.813,6.448,79.73,6.4,79.641,6.4h0    c-0.089,0-0.172,0.048-0.217,0.125l-5.009,8.644c-0.045,0.078-0.045,0.174,0,0.251c0.045,0.078,0.128,0.126,0.218,0.126h9.973    c0.001,0,0.003,0,0.004,0C84.747,15.546,84.859,15.434,84.859,15.295z"/>
</svg>