<svg version="1.2" baseProfile="tiny" viewBox="0 0 220.412 63.798" xmlns:xlink="http://www.w3.org/1999/xlink" xmlns="http://www.w3.org/2000/svg">
<path style="fill:#ffffff;" d="M214.596,1.319h-65.794h-0.67h-3.913H81.691h-3.913h-0.67H5.816c-2.297,0-4.167,1.869-4.167,4.167v52.826    c0,2.297,1.87,4.166,4.167,4.166h71.292h0.67h3.913h62.527h3.913h0.67h65.794c2.298,0,4.168-1.869,4.168-4.166V5.486    C218.764,3.188,216.894,1.319,214.596,1.319z M72.486,1.76h4.258h0.568h2.551h1.827h62.527h1.827h1.876v1.856V5.25v15.21H77.964    h-0.44h-1.209h-0.44h-3.389V1.76z M72.046,62.039H5.816c-2.055,0-3.727-1.672-3.727-3.727V5.486c0-2.055,1.672-3.727,3.727-3.727    h66.23V62.039z M147.921,62.039h-1.877h-1.826H81.691h-1.826h-2.552h-0.568h-4.259V20.899h3.389h0.44h1.209h0.44h69.958v37.649    v1.634V62.039z M218.323,58.312c0,2.055-1.672,3.727-3.728,3.727h-65.431h-0.568h-0.235v-3.49c0.004-0.08,0.002-0.155,0.002-0.236    V20.899V20.46h-0.002V5.25V1.76h0.235h0.568h65.431c2.056,0,3.728,1.672,3.728,3.727V58.312z M216.074,0h-70.378H80.213H4.338    C1.946,0,0,1.946,0,4.339V59.46c0,2.391,1.946,4.338,4.338,4.338h75.875h65.482h70.378c2.393,0,4.338-1.947,4.338-4.338V4.339    C220.412,1.946,218.467,0,216.074,0z M219.973,59.46c0,2.148-1.75,3.896-3.898,3.896h-68.508h-1.871H80.213h-1.871H4.338    c-2.149,0-3.898-1.748-3.898-3.896V4.339c0-2.149,1.749-3.898,3.898-3.898h74.006h1.869h65.482h1.869h68.509    c2.148,0,3.898,1.749,3.898,3.898V59.46z"/>
</svg>