<svg xmlns="http://www.w3.org/2000/svg" width="240" height="73" viewBox="2.86 3.09 234.29 66.82">
  <path fill="#25436A" d="M175.07 55.04h-7.63c-3 0-4.55-.48-5.18-1.6-.59-1.04-.29-2.55.95-4.74l.09-.16h7.84l-.27.47c-.18.33-.25.59-.17.73.08.15.37.23.78.23h5c3.11 0 4.96-1.12 6.58-4.01l4.53-8.16c.82-1.46 1.08-2.3.83-2.74-.24-.43-1.07-.62-2.62-.62h-3.38c-3.17 0-4.48.78-6.11 3.68-.79 1.42-1.05 2.25-.81 2.67.24.42 1.08.62 2.64.62h4.1l-3.19 5.63-.16.01c-.62.06-1.33.09-2.15.09h-3.63c-3.29 0-5.18-.64-5.94-1.99-.76-1.35-.34-3.35 1.33-6.31l1.45-2.58c3.52-6.26 7.68-7.54 12.85-7.54h4.03c3.22 0 4.16.4 4.6 2.39l1.18-2.09h7.2L189.6 47.13c-2.2 3.91-5.64 7.91-14.53 7.91m-44.32-6.28h-7.53l3.37-5.97.19.01c.21.01.43.01.66.01h1.66c4.51 0 5.5-.63 6.8-2.94l1.46-2.58c.59-1.04.76-1.64.59-1.96-.33-.59-2.16-.67-3.9-.67h-1.66c-3.31 0-5.05.91-6.43 3.35l-6.09 10.75-.19-.01c-2.11-.11-3.5-.75-4.1-1.9-.72-1.35-.33-3.37 1.16-6.01l2.54-4.5c2.85-5.05 6.91-7.61 12.07-7.61h10.33c2.49 0 4.1.62 4.8 1.86.76 1.35.38 3.39-1.12 6.07l-2.54 4.51c-2.86 5.03-6.92 7.59-12.07 7.59m-28.01-.29h-26l3.97-7.06h22.5c1.9 0 3-.54 3.71-1.8.35-.62.46-1.08.33-1.32-.16-.28-.73-.42-1.69-.42H82.71l9.44-16.77h23.19c3.89 0 5.99.64 6.79 2.08.69 1.22.36 2.99-1 5.41-2.32 4.11-4.3 5.32-6.51 6 .83.26 1.37.69 1.66 1.28.54 1.12.13 2.77-1.32 5.34-3.6 6.4-8.2 7.26-12.22 7.26m45.4 0h-7.63l10.96-19.46h7.2l-1.26 2.23c2.02-1.68 4.6-2.52 7.69-2.52 2.47 0 3.92.52 4.55 1.62.71 1.27.26 3.26-1.44 6.27-.21.38-.45.78-.75 1.26l-.35.57h-6.68l.27-.47c.52-.93 1.08-2.06.8-2.56-.19-.33-.81-.51-1.86-.51-1.76 0-4.15.52-5.55 3.02l-5.95 10.55zm78.05-.01h-7.63L229.52 29h7.62l-10.95 19.46zm-9.74 0h-7.63l6.36-11.29c.37-.66.46-1.17.27-1.5-.21-.36-.87-.79-2.91-.79h-1.59c-2.93 0-5.33 1.4-6.76 3.94l-5.43 9.64h-7.63l15.41-27.36h7.63l-5.61 9.96c2.19-1.66 4.68-2.35 8.21-2.35 2.37 0 5.95 0 7.15 2.12.82 1.47.4 3.64-1.3 6.66l-6.17 10.97zM94.89 31.7h13.62c1.49 0 2.5-.59 3.24-1.91.33-.6.45-1.06.32-1.29-.12-.23-.54-.34-1.2-.34H96.89l-2 3.54zM64.32 69.9c5.9-.23 10.62-5.06 10.62-10.98 0-2.29-.71-4.42-1.92-6.18l-11.9-20.45c-2.2 2.88-9.3 3.91-8.33 3.86 1.71.16 5.61.68 6.29 2.77.64 1.99-.08 4.04-2.55 8.29-6.09 10.48-17.37 11.71-24.18 11.71H9.82l5.95-10.2H35.9c4.27 0 6.54-1.83 7.72-3.87.55-.96.59-1.56.55-2.02-.05-.54-.52-1.68-3.18-1.66l-21.01-.01L25.92 31h19.96c3.02 0 5.04-1.16 6.55-3.75.94-1.61-.12-2.43-.52-2.62-.24-.11-.79-.4-2.54-.4H29.79l5.98-10.24h14.7c-1.39-2.39-2.44-4.39-3.45-6.09-1.61-2.72-4.77-4.8-8.17-4.8-3.44 0-6.28 1.78-7.92 4.76L4.22 53.89c-.87 1.55-1.37 3.34-1.37 5.24 0 5.92 4.8 10.72 10.73 10.78l50.74-.01z"/>
</svg>
